<svg id="visual" viewBox="0 0 900 450" width="900" height="450" xmlns="http://www.w3.org/2000/svg" xmlns:xlink="http://www.w3.org/1999/xlink" version="1.1"><rect x="0" y="0" width="900" height="450" fill="#eeeeee"></rect><path d="M0 149L37.5 156.2C75 163.3 150 177.7 225 210.3C300 243 375 294 450 308.5C525 323 600 301 675 258.5C750 216 825 153 862.5 121.5L900 90L900 451L862.5 451C825 451 750 451 675 451C600 451 525 451 450 451C375 451 300 451 225 451C150 451 75 451 37.5 451L0 451Z" fill="#dddddd"></path><path d="M0 223L37.5 233.2C75 243.3 150 263.7 225 288C300 312.3 375 340.7 450 327.2C525 313.7 600 258.3 675 241.8C750 225.3 825 247.7 862.5 258.8L900 270L900 451L862.5 451C825 451 750 451 675 451C600 451 525 451 450 451C375 451 300 451 225 451C150 451 75 451 37.5 451L0 451Z" fill="#929292"></path><path d="M0 302L37.5 291.3C75 280.7 150 259.3 225 274.7C300 290 375 342 450 360.3C525 378.7 600 363.3 675 358.5C750 353.7 825 359.3 862.5 362.2L900 365L900 451L862.5 451C825 451 750 451 675 451C600 451 525 451 450 451C375 451 300 451 225 451C150 451 75 451 37.5 451L0 451Z" fill="#4e4e4e"></path><path d="M0 355L37.5 357.7C75 360.3 150 365.7 225 372.2C300 378.7 375 386.3 450 379.8C525 373.3 600 352.7 675 349.3C750 346 825 360 862.5 367L900 374L900 451L862.5 451C825 451 750 451 675 451C600 451 525 451 450 451C375 451 300 451 225 451C150 451 75 451 37.5 451L0 451Z" fill="#131313"></path></svg>